# xmcd
#
# Track frame offsets:
#	150
#	17630
#	38823
#	59462
#	78514
#	96796
#	119455
#	157105
#	169936
#	193527
#	215641
#
# Disc length: 3215 seconds
#
# Revision: 1
# Processed by: cddbd v1.5PL3 Copyright (c) Steve Scherf et al.
# Submitted via: EasyCDDAExtractor 5.0.6
#
DISCID=960c8d0b
DTITLE=Dave Hole - Working Overtime
DYEAR=1900
DGENRE=Blues
TTITLE0=Nobody hears me crying
TTITLE1=You're gonna reap everything y
TTITLE2=Stormy seas
TTITLE3=Mean old airplane
TTITLE4=Working overtime
TTITLE5=Key to the highway
TTITLE6=Up all night thinking
TTITLE7=I can't be satisfied
TTITLE8=Twenty years
TTITLE9=Crazy kind of woman
TTITLE10=Berwick road
EXTD=
EXTT0=
EXTT1=
EXTT2=
EXTT3=
EXTT4=
EXTT5=
EXTT6=
EXTT7=
EXTT8=
EXTT9=
EXTT10=
PLAYORDER=
